<?xml version="1.0" encoding="utf-8"?>
<!-- Generator: Adobe Illustrator 19.0.0, SVG Export Plug-In . SVG Version: 6.00 Build 0)  -->
<svg version="1.1" id="Layer_1" xmlns="http://www.w3.org/2000/svg" xmlns:xlink="http://www.w3.org/1999/xlink" x="0px" y="0px"
	 viewBox="0 0 86.6 52.1" style="enable-background:new 0 0 86.6 52.1;" xml:space="preserve">
<style type="text/css">
	.st0{fill:#CEE5EF;}
	.st1{fill:#76C7DF;}
	.st2{fill:#FFFFFF;}
	.st3{fill:#F5A040;}
</style>
<g id="XMLID_25_">
	<path id="XMLID_26_" class="st0" d="M85.8,51.4H0.8V2.7c0-1.1,0.9-2,2-2h81.2c1.1,0,2,0.9,2,2V51.4z"/>
	<path id="XMLID_27_" class="st1" d="M86.6,52.1H0V2.7C0,1.2,1.2,0,2.7,0h8.6v1.5H2.7C2,1.5,1.5,2,1.5,2.7v47.9h83.6V2.7
		c0-0.7-0.6-1.2-1.2-1.2H18.7V0h65.1c1.5,0,2.7,1.2,2.7,2.7V52.1z"/>
	<rect id="XMLID_28_" x="12.7" class="st1" width="4.6" height="1.5"/>
	<rect id="XMLID_29_" x="5.4" y="5.7" class="st2" width="76" height="40"/>
	<rect id="XMLID_30_" x="8.2" y="8.8" class="st0" width="40" height="23.9"/>
	<polygon id="XMLID_31_" class="st3" points="32.1,20 24.3,15.4 24.3,24.5 	"/>
	<rect id="XMLID_32_" x="50.5" y="8.8" class="st0" width="11.1" height="11.1"/>
	<rect id="XMLID_33_" x="50.5" y="21.5" class="st0" width="11.1" height="11.1"/>
	<rect id="XMLID_34_" x="50.5" y="34.2" class="st0" width="11.1" height="11.1"/>
	<rect id="XMLID_35_" x="9.2" y="34.4" class="st1" width="14" height="1.5"/>
	<rect id="XMLID_36_" x="63.9" y="10.7" class="st0" width="14" height="1.5"/>
	<rect id="XMLID_37_" x="63.9" y="14.7" class="st0" width="14" height="1.5"/>
	<rect id="XMLID_38_" x="63.9" y="23" class="st0" width="14" height="1.5"/>
	<rect id="XMLID_39_" x="63.9" y="26.9" class="st0" width="14" height="1.5"/>
	<rect id="XMLID_40_" x="63.9" y="36.2" class="st0" width="14" height="1.5"/>
	<rect id="XMLID_41_" x="63.9" y="40.2" class="st0" width="14" height="1.5"/>
	<rect id="XMLID_42_" x="9.2" y="39" class="st1" width="33" height="1.5"/>
</g>
</svg>
