<?xml version="1.0" encoding="utf-8"?>
<!-- Generator: Adobe Illustrator 19.0.0, SVG Export Plug-In . SVG Version: 6.00 Build 0)  -->
<svg version="1.1" id="Layer_1" xmlns="http://www.w3.org/2000/svg" xmlns:xlink="http://www.w3.org/1999/xlink" x="0px" y="0px"
	 viewBox="0 0 79.8 76.5" style="enable-background:new 0 0 79.8 76.5;" xml:space="preserve">
<style type="text/css">
	.st0{fill:#CEE5EF;}
	.st1{fill:#76C7DF;}
	.st2{fill:#FFFFFF;}
	.st3{fill:#D6E047;}
</style>
<g id="XMLID_40_">
	<path id="XMLID_41_" class="st0" d="M4.9,72.9h69.6c0.6,0,1-0.5,1-1V22.4c0-0.6-0.5-1-1-1H4.9c-0.5,0-1,0.5-1,1v49.4
		C3.9,72.4,4.4,72.9,4.9,72.9L4.9,72.9z"/>
	<path id="XMLID_43_" class="st1" d="M5.7,73.6h68c1.4,0,2.5-1.1,2.5-2.5V43.3h-1.5v27.8c0,0.6-0.5,1-1,1h-68c-0.6,0-1-0.5-1-1V23.2
		c0-0.6,0.5-1,1-1h6.8v-1.5H5.7c-1.4,0-2.5,1.1-2.5,2.5v47.9C3.2,72.5,4.3,73.6,5.7,73.6L5.7,73.6z"/>
	<rect id="XMLID_44_" x="7.8" y="25.4" class="st2" width="64.3" height="41.8"/>
	<path id="XMLID_45_" class="st2" d="M5.2,75.7H75c1.7,0,3.1-1.2,3.4-2.9l0.5-3H46.5l-1.2,1.8h-9L35,69.8H0.9l0.5,2.6
		C1.6,74.3,3.3,75.7,5.2,75.7L5.2,75.7z"/>
	<path id="XMLID_47_" class="st1" d="M46.9,70.5l-1.2,1.8H36l-1.3-1.8H1.8l0.3,1.8c0.2,1.5,1.6,2.6,3.1,2.6H75
		c1.3,0,2.4-0.9,2.6-2.2l0.4-2.2H46.9z M0.6,72.5L0,69.1h35.4l1.3,1.8h8.2l1.2-1.8h33.6l-0.6,3.9c-0.3,2-2.1,3.5-4.1,3.5H5.2
		C2.9,76.5,0.9,74.8,0.6,72.5L0.6,72.5z"/>
	<path id="XMLID_49_" class="st2" d="M14.1,67.2V3.7c0-1.6,1.3-2.9,2.9-2.9h43.5c1.6,0,2.9,1.3,2.9,2.9v63.5H14.1z"/>
	<path id="XMLID_50_" class="st0" d="M63.6,8.4V3.2c0-1.4-1.1-2.5-2.5-2.5H16.6c-1.4,0-2.5,1.1-2.5,2.5v5.2H63.6z"/>
	<path id="XMLID_51_" class="st1" d="M62.8,67.2h1.5V3.2c0-1.8-1.4-3.2-3.2-3.2h-6.5v1.5h6.5c1,0,1.7,0.8,1.7,1.7V67.2z"/>
	<path id="XMLID_52_" class="st1" d="M13.4,67.2h1.5V3.2c0-1,0.8-1.7,1.7-1.7h29.3V0H16.6c-1.8,0-3.2,1.4-3.2,3.2V67.2z"/>
	<rect id="XMLID_53_" x="48.8" class="st1" width="3.4" height="1.5"/>
	<rect id="XMLID_54_" x="14.1" y="7.8" class="st1" width="49.4" height="1.5"/>
	<rect id="XMLID_55_" x="56.6" y="4.3" class="st1" width="1.4" height="1.5"/>
	<rect id="XMLID_56_" x="52.6" y="4.3" class="st1" width="1.3" height="1.5"/>
	<rect id="XMLID_57_" x="48.7" y="4.3" class="st1" width="1.3" height="1.5"/>
	<rect id="XMLID_58_" x="48.7" y="41.4" class="st1" width="11" height="14.3"/>
	<rect id="XMLID_59_" x="33.4" y="41.4" class="st0" width="11" height="14.3"/>
	<rect id="XMLID_60_" x="17.9" y="41.4" class="st1" width="11" height="14.3"/>
	<rect id="XMLID_61_" x="31.2" y="38" class="st1" width="15.4" height="1.5"/>
	<rect id="XMLID_62_" x="17.9" y="13" class="st0" width="41.8" height="23.4"/>
	<polygon id="XMLID_63_" class="st3" points="59.7,20.9 57.9,20.9 55.2,22.7 51.9,22.7 49.4,22.7 47.5,25.3 44.2,27.6 37.7,27.7 
		35.9,26.4 32.6,28 26.1,28 19.7,33.9 17.9,33.9 17.9,36.5 59.7,36.5 	"/>
	<polygon id="XMLID_64_" class="st1" points="20,34.6 17.9,34.6 17.9,33.1 19.4,33.1 25.9,27.3 32.4,27.3 36,25.5 38,27 44,26.9 
		47,24.7 49,22 55,22 57.7,20.2 59.7,20.2 59.7,21.7 58.1,21.7 55.5,23.5 49.7,23.5 48,25.9 44.5,28.4 37.4,28.5 35.9,27.2 
		32.8,28.8 26.4,28.8 	"/>
</g>
</svg>
