<?xml version="1.0" encoding="utf-8"?>
<!-- Generator: Adobe Illustrator 19.0.0, SVG Export Plug-In . SVG Version: 6.00 Build 0)  -->
<svg version="1.1" id="Layer_1" xmlns="http://www.w3.org/2000/svg" xmlns:xlink="http://www.w3.org/1999/xlink" x="0px" y="0px"
	 viewBox="0 0 77.9 62.1" style="enable-background:new 0 0 77.9 62.1;" xml:space="preserve">
<style type="text/css">
	.st0{fill:#FFFFFF;}
	.st1{fill:#76C7DF;}
	.st2{fill:#CEE5EF;}
	.st3{fill:#D2E8F7;}
	.st4{fill:#F5A040;}
	.st5{fill:#D6E048;}
</style>
<g id="XMLID_1_">
	<path id="XMLID_2_" class="st0" d="M73.1,58.7h-66c-0.5,0-1-0.5-1-1V10.8c0-0.6,0.5-1,1-1h66c0.6,0,1,0.5,1,1v46.9
		C74.1,58.2,73.7,58.7,73.1,58.7L73.1,58.7z"/>
	<path id="XMLID_3_" class="st1" d="M7.8,59.4c-1.3,0-2.4-1.1-2.4-2.5V28.3h1.5V57c0,0.5,0.4,1,0.9,1V59.4z"/>
	<path id="XMLID_4_" class="st1" d="M74.9,55.9h-1.5V11.5c0-0.5-0.4-0.9-0.9-0.9H36.6V9h35.9c1.3,0,2.4,1.1,2.4,2.4V55.9z"/>
	<rect id="XMLID_5_" x="9.4" y="13.6" class="st2" width="61.1" height="39.7"/>
	<path id="XMLID_6_" class="st0" d="M72.9,61.4H6.5c-1.6,0-2.9-1.2-3.2-2.7l-0.5-2.9h30.8l1.2,1.7h8.5l1.3-1.7H77l-0.4,2.5
		C76.3,60.1,74.7,61.4,72.9,61.4L72.9,61.4z"/>
	<path id="XMLID_7_" class="st1" d="M3.7,56.5l0.3,2c0.2,1.2,1.2,2.1,2.5,2.1h66.4c1.4,0,2.7-1,2.9-2.5l0.3-1.6H45l-1.3,1.7h-9.3
		l-1.2-1.7H3.7z M72.9,62.1H6.5c-2,0-3.6-1.4-3.9-3.3L2,55H34l1.2,1.7h7.7l1.3-1.7h33.7l-0.5,3.4C77,60.6,75.1,62.1,72.9,62.1
		L72.9,62.1z"/>
	<rect id="XMLID_10_" x="17.4" y="17.6" class="st0" width="6.8" height="0.9"/>
	<rect id="XMLID_11_" x="20.8" y="20.6" class="st0" width="4.7" height="0.9"/>
	<rect id="XMLID_12_" x="35.3" y="20.6" class="st1" width="32.9" height="0.9"/>
	<rect id="XMLID_13_" x="28.8" y="20.6" class="st0" width="5.3" height="0.9"/>
	<rect id="XMLID_14_" x="22.5" y="23.2" class="st0" width="9.4" height="0.9"/>
	<path id="XMLID_15_" class="st1" d="M38.2,27.7H26.2v-0.9h11.9V27.7z M14.2,51.8h-1.4v-1.4h1.4V51.8z M14.2,48h-1.4v-1.4h1.4V48z
		 M14.2,44.2h-1.4v-1.4h1.4V44.2z M14.2,40.5h-1.4V39h1.4V40.5z M14.2,36.7h-1.4v-1.4h1.4V36.7z M14.2,32.9h-1.4v-1.4h1.4V32.9z
		 M14.2,29.1h-1.4v-1.4h1.4V29.1z M63.6,27.7H39.2v-0.9h24.4V27.7z M64.9,27.7h2.9v-0.9h-2.9V27.7z M58.2,47.2h-9.8v-0.9h9.8V47.2z
		 M46.8,47.2H36.4v-0.9h10.4V47.2z M34.2,47.2H23.8v-0.9h10.4V47.2z M27.8,43.8h12.8v-0.9H27.8V43.8z M26.2,43.8h-5.4v-0.9h5.4V43.8
		z M51.6,40.4h15.4v-0.9H51.6V40.4z M50.3,40.4H33.2v-0.9h17.1V40.4z M32.2,40.4h-3.6v-0.9h3.6V40.4z M27.8,40.4H17.4v-0.9h10.4
		V40.4z M22.5,37.9h3.2V37h-3.2V37.9z M41.9,37.9H26.6V37h15.3V37.9z M44.5,34.5H39v-0.9h5.5V34.5z M45.4,34.5H57v-0.9H45.4V34.5z
		 M38.3,34.5H20.8v-0.9h17.5V34.5z M31.8,31.1h9.4v-0.9h-9.4V31.1z M30.4,31.1h-13v-0.9h13V31.1z"/>
	<rect id="XMLID_42_" x="26.2" y="17.6" class="st1" width="27.7" height="0.9"/>
	<rect id="XMLID_43_" x="12.8" y="16.2" class="st0" width="1.4" height="1.4"/>
	<rect id="XMLID_44_" x="12.8" y="20" class="st0" width="1.4" height="1.4"/>
	<rect id="XMLID_45_" x="12.8" y="23.8" class="st0" width="1.4" height="1.4"/>
	<path id="XMLID_46_" class="st0" d="M33.5,25.6l-28.1,0c-2.6,0-4.6-2.1-4.6-4.6V5.4c0-2.6,2.1-4.6,4.6-4.6h25
		c2.6,0,4.6,2.1,4.6,4.6V21C35.1,23.5,36.1,25.6,33.5,25.6L33.5,25.6z"/>
	<path id="XMLID_47_" class="st3" d="M0.8,6V2.5c0-0.9,0.8-1.7,1.7-1.7h30.9c0.9,0,1.7,0.8,1.7,1.7V6H0.8z"/>
	<path id="XMLID_48_" class="st1" d="M33.3,26.4H2.5c-1.4,0-2.5-1.1-2.5-2.5V2.5C0,1.1,1.1,0,2.5,0H7v1.5H2.5c-0.5,0-1,0.4-1,1v21.4
		c0,0.5,0.4,1,1,1h30.9c0.5,0,1-0.4,1-1V2.5c0-0.5-0.4-1-1-1H13V0h20.4c1.4,0,2.5,1.1,2.5,2.5v21.4C35.8,25.3,34.7,26.4,33.3,26.4
		L33.3,26.4z"/>
	<rect id="XMLID_49_" x="8.3" class="st1" width="2.7" height="1.5"/>
	<rect id="XMLID_50_" x="0.8" y="5.4" class="st1" width="34.3" height="1.5"/>
	<rect id="XMLID_51_" x="3.5" y="2.9" class="st4" width="1.6" height="1.5"/>
	<rect id="XMLID_52_" x="6.8" y="2.9" class="st4" width="1.6" height="1.5"/>
	<rect id="XMLID_53_" x="10.1" y="2.9" class="st4" width="1.6" height="1.5"/>
	<polygon id="XMLID_54_" class="st5" points="11.3,14.9 11.3,13.9 15,12.2 15,13.3 12.6,14.4 15,15.6 15,16.7 	"/>
	<polygon id="XMLID_55_" class="st5" points="19,11.3 20,11.3 16.8,18.3 15.8,18.3 	"/>
	<polygon id="XMLID_56_" class="st5" points="24.5,13.9 24.5,14.9 20.8,16.7 20.8,15.6 23.2,14.4 20.8,13.3 20.8,12.2 	"/>
</g>
</svg>
