<?xml version="1.0" encoding="utf-8"?>
<!-- Generator: Adobe Illustrator 19.0.0, SVG Export Plug-In . SVG Version: 6.00 Build 0)  -->
<svg version="1.1" id="Layer_1" xmlns="http://www.w3.org/2000/svg" xmlns:xlink="http://www.w3.org/1999/xlink" x="0px" y="0px"
	 viewBox="0 0 52.3 12.7" style="enable-background:new 0 0 52.3 12.7;" xml:space="preserve">
<style type="text/css">
	.st0{fill:#CEE5EF;}
	.st1{fill:#FFFFFF;}
	.st2{fill:#76C7DF;}
</style>
<g id="XMLID_114_">
	<path id="XMLID_115_" class="st0" d="M51.5,10.5V2.2c0-0.8-0.6-1.4-1.4-1.4h-48c-0.8,0-1.4,0.6-1.4,1.4v8.4c0,0.8,0.6,1.4,1.4,1.4
		h48C50.9,11.9,51.5,11.3,51.5,10.5L51.5,10.5z"/>
	<path id="XMLID_116_" class="st1" d="M0.8,2.2v3.6h50.8V2.2c0-0.8-0.7-1.4-1.4-1.4h-48C1.4,0.8,0.8,1.4,0.8,2.2L0.8,2.2z"/>
	<path id="XMLID_118_" class="st2" d="M2.2,1.5c-0.4,0-0.7,0.3-0.7,0.7v8.4c0,0.4,0.3,0.7,0.7,0.7h48c0.4,0,0.7-0.3,0.7-0.7V2.2
		c0-0.4-0.3-0.7-0.7-0.7H2.2z M50.1,12.7h-48c-1.2,0-2.2-1-2.2-2.2V2.2C0,1,1,0,2.2,0h48c1.2,0,2.2,1,2.2,2.2v8.4
		C52.3,11.7,51.3,12.7,50.1,12.7L50.1,12.7z"/>
	<rect id="XMLID_120_" x="5.7" y="0.8" class="st2" width="1.5" height="6.8"/>
	<rect id="XMLID_121_" x="10.5" y="0.8" class="st2" width="1.5" height="3.4"/>
	<rect id="XMLID_122_" x="15.3" y="0.8" class="st2" width="1.5" height="3.4"/>
	<rect id="XMLID_123_" x="20.1" y="0.8" class="st2" width="1.5" height="3.4"/>
	<rect id="XMLID_124_" x="24.9" y="0.8" class="st2" width="1.5" height="6.8"/>
	<rect id="XMLID_125_" x="29.7" y="0.8" class="st2" width="1.5" height="3.4"/>
	<rect id="XMLID_126_" x="34.5" y="0.8" class="st2" width="1.5" height="3.4"/>
	<rect id="XMLID_127_" x="39.3" y="0.8" class="st2" width="1.5" height="3.4"/>
	<rect id="XMLID_128_" x="44.1" y="0.8" class="st2" width="1.5" height="6.8"/>
</g>
</svg>
