<?xml version="1.0" encoding="utf-8"?>
<!-- Generator: Adobe Illustrator 19.0.0, SVG Export Plug-In . SVG Version: 6.00 Build 0)  -->
<svg version="1.1" id="Layer_1" xmlns="http://www.w3.org/2000/svg" xmlns:xlink="http://www.w3.org/1999/xlink" x="0px" y="0px"
	 viewBox="0 0 41.6 30.4" style="enable-background:new 0 0 41.6 30.4;" xml:space="preserve">
<style type="text/css">
	.st0{fill:#FFFFFF;}
	.st1{fill:#76C7DF;}
	.st2{fill:#D1E8F6;}
</style>
<g id="XMLID_65_">
	<path id="XMLID_66_" class="st0" d="M38.9,29.6H2.7c-1,0-1.9-0.9-1.9-1.9v-25c0-1,0.9-1.9,1.9-1.9h36.3c1,0,1.9,0.9,1.9,1.9v25
		C40.8,28.7,40,29.6,38.9,29.6L38.9,29.6z"/>
	<path id="XMLID_67_" class="st1" d="M39,30.4H2.6c-1.4,0-2.6-1.2-2.6-2.6V2.6C0,1.2,1.2,0,2.6,0h24.1v1.5H2.6C2,1.5,1.5,2,1.5,2.6
		v25.1c0,0.6,0.5,1.1,1.1,1.1H39c0.6,0,1.1-0.5,1.1-1.1V2.6c0-0.6-0.5-1.1-1.1-1.1h-2.4V0H39c1.4,0,2.6,1.2,2.6,2.6v25.1
		C41.6,29.2,40.4,30.4,39,30.4L39,30.4z"/>
	<rect id="XMLID_68_" x="30.7" class="st1" width="3.3" height="1.5"/>
	<rect id="XMLID_69_" x="3.1" y="11.5" class="st1" width="1.5" height="7.4"/>
	<rect id="XMLID_70_" x="6" y="3.2" class="st2" width="29.3" height="23.9"/>
	<path id="XMLID_72_" class="st1" d="M37.1,14.9c-0.2,0-0.3,0.1-0.3,0.3c0,0.2,0.1,0.3,0.3,0.3c0.2,0,0.3-0.1,0.3-0.3
		C37.4,15,37.3,14.9,37.1,14.9L37.1,14.9z M37.1,17c-1,0-1.8-0.8-1.8-1.8s0.8-1.8,1.8-1.8c1,0,1.8,0.8,1.8,1.8S38.1,17,37.1,17
		L37.1,17z"/>
	<path id="XMLID_75_" class="st1" d="M20.6,14c-1.2,0-2.2,1-2.2,2.2c0,1.2,1,2.2,2.2,2.2s2.2-1,2.2-2.2C22.7,15,21.8,14,20.6,14
		L20.6,14z M20.6,19.8c-2,0-3.6-1.6-3.6-3.6s1.6-3.7,3.6-3.7s3.7,1.6,3.7,3.7S22.6,19.8,20.6,19.8L20.6,19.8z M17,20.7l0.5,0.3
		c0.6,0.4,1.2,0.6,1.8,0.8l0.6,0.1v2c0,0.1,0,0.1,0.1,0.1c0,0,0.1,0,0.1,0h1c0.1,0,0.2-0.1,0.2-0.1v-2l0.6-0.1
		c0.6-0.1,1.2-0.4,1.8-0.7l0.5-0.3l1.4,1.4c0.1,0.1,0.2,0.1,0.2,0l0.8-0.7c0-0.1,0-0.1,0-0.1c0,0,0-0.1,0-0.1l-1.4-1.4l0.3-0.5
		c0.3-0.6,0.6-1.2,0.7-1.8l0.1-0.6l2,0c0.1,0,0.2-0.1,0.2-0.2v-1c0-0.1-0.1-0.2-0.2-0.2h-2l-0.1-0.6c-0.2-0.6-0.4-1.2-0.8-1.8
		l-0.3-0.5l1.4-1.4c0.1-0.1,0.1-0.1,0.1-0.1c0,0,0-0.1-0.1-0.1l-0.7-0.8c-0.1-0.1-0.2-0.1-0.2,0l-1.4,1.4l-0.5-0.3
		c-0.6-0.3-1.2-0.6-1.8-0.7l-0.6-0.1v-2c0-0.1-0.1-0.2-0.2-0.2h-1c-0.1,0-0.2,0.1-0.2,0.2v2l-0.6,0.1c-0.6,0.1-1.2,0.4-1.8,0.7
		L17,11.6l-1.4-1.4c-0.1-0.1-0.2-0.1-0.2,0l-0.8,0.7c-0.1,0.1-0.1,0.2,0,0.2l1.4,1.4l-0.3,0.5c-0.4,0.5-0.6,1.1-0.8,1.8l-0.1,0.6
		l-2,0c0,0-0.1,0-0.1,0.1c0,0,0,0.1,0,0.1l0,1c0,0.1,0.1,0.2,0.2,0.2h2l0.1,0.6c0.1,0.7,0.4,1.2,0.7,1.8l0.3,0.5l-1.4,1.4
		c-0.1,0.1-0.1,0.1-0.1,0.1c0,0.1,0,0.1,0.1,0.1l0.7,0.7c0,0,0.1,0.1,0.1,0.1c0,0,0.1,0,0.1-0.1L17,20.7z M21.1,25.6h-1
		c-0.5,0-0.9-0.2-1.2-0.5c-0.3-0.3-0.5-0.7-0.5-1.2v-0.8c-0.4-0.1-0.8-0.3-1.2-0.5l-0.6,0.6c-0.3,0.3-0.7,0.5-1.2,0.5l0,0
		c-0.5,0-0.9-0.2-1.2-0.5l-0.7-0.7c-0.3-0.3-0.5-0.7-0.5-1.2c0-0.4,0.2-0.9,0.5-1.2l0.6-0.6c-0.2-0.4-0.3-0.8-0.5-1.2h-0.9
		c-0.9,0-1.7-0.8-1.6-1.7v-1c0-0.5,0.2-0.9,0.5-1.2c0.3-0.3,0.8-0.5,1.2-0.5h0.8c0.1-0.4,0.3-0.8,0.5-1.1l-0.6-0.6
		c-0.3-0.3-0.5-0.7-0.5-1.2c0-0.5,0.2-0.9,0.5-1.2l0.8-0.8c0.3-0.3,0.7-0.5,1.2-0.5l0,0c0.4,0,0.9,0.2,1.2,0.5l0.6,0.6
		c0.4-0.2,0.7-0.3,1.1-0.5V8.4c0-0.9,0.7-1.7,1.7-1.7h1c0.9,0,1.7,0.8,1.7,1.7v0.9c0.4,0.1,0.8,0.3,1.1,0.5l0.6-0.6
		c0.7-0.7,1.7-0.7,2.4,0l0.8,0.7c0.3,0.3,0.5,0.7,0.5,1.2c0,0.5-0.2,0.9-0.5,1.2L27,12.8c0.2,0.4,0.3,0.8,0.5,1.2h0.8
		c0.9,0,1.7,0.7,1.7,1.7v1c0,0.9-0.8,1.7-1.7,1.7l-0.9,0c-0.1,0.4-0.3,0.8-0.5,1.2l0.6,0.6c0.3,0.3,0.5,0.7,0.5,1.2
		c0,0.4-0.2,0.9-0.5,1.2l-0.7,0.7c-0.7,0.7-1.7,0.7-2.4,0l-0.6-0.6c-0.4,0.2-0.8,0.4-1.2,0.5V24C22.8,24.9,22,25.6,21.1,25.6
		L21.1,25.6z"/>
</g>
</svg>
