<?xml version="1.0" encoding="utf-8"?>
<!-- Generator: Adobe Illustrator 19.0.0, SVG Export Plug-In . SVG Version: 6.00 Build 0)  -->
<svg version="1.1" id="Layer_1" xmlns="http://www.w3.org/2000/svg" xmlns:xlink="http://www.w3.org/1999/xlink" x="0px" y="0px"
	 viewBox="0 0 61.7 58.9" style="enable-background:new 0 0 61.7 58.9;" xml:space="preserve">
<style type="text/css">
	.st0{fill:#CEE5EF;}
	.st1{fill:#76C7DF;}
	.st2{fill:#D2E8F7;}
	.st3{fill:#D6E048;}
</style>
<g id="XMLID_1_">
	<path id="XMLID_2_" class="st0" d="M60.9,10V3.8c0-1.7-1.4-3-3-3H3.8c-1.7,0-3,1.3-3,3V10H60.9z"/>
	<path id="XMLID_3_" class="st1" d="M60.2,30.6h1.5V3.8C61.7,1.7,60,0,57.9,0h-8v1.5h8c1.2,0,2.3,1,2.3,2.3V30.6z"/>
	<path id="XMLID_4_" class="st1" d="M0,58.9h1.5V3.8c0-1.2,1-2.3,2.3-2.3h35.7V0H3.8C1.7,0,0,1.7,0,3.8V58.9z"/>
	<rect id="XMLID_5_" x="42.9" class="st1" width="4.1" height="1.5"/>
	<rect id="XMLID_6_" x="0.8" y="9.5" class="st1" width="60.2" height="1.5"/>
	<rect id="XMLID_7_" x="51.6" y="5.2" class="st1" width="2.4" height="1.5"/>
	<rect id="XMLID_8_" x="46" y="5.2" class="st1" width="2.4" height="1.5"/>
	<rect id="XMLID_9_" x="40.5" y="5.2" class="st1" width="2.4" height="1.5"/>
	<rect id="XMLID_10_" x="8.2" y="15" class="st2" width="45.2" height="14.1"/>
	<rect id="XMLID_11_" x="35.4" y="34" class="st3" width="18" height="14.1"/>
	<rect id="XMLID_12_" x="8" y="35.2" class="st1" width="20.8" height="1.5"/>
	<rect id="XMLID_13_" x="8" y="40.3" class="st1" width="20.8" height="1.5"/>
	<rect id="XMLID_14_" x="18.4" y="45.4" class="st1" width="10.4" height="1.5"/>
	<rect id="XMLID_15_" x="43" y="29.5" class="st1" width="1.5" height="5.2"/>
	<polygon id="XMLID_16_" class="st1" points="39.8,35.9 41.1,35.2 39.8,32.9 38.5,33.6 	"/>
	<polygon id="XMLID_17_" class="st1" points="37.7,38.6 38.5,37.3 33.9,34.7 33.2,36 	"/>
	<polygon id="XMLID_18_" class="st1" points="47.8,49.5 49.1,48.7 47.7,46.4 46.4,47.2 	"/>
	<polygon id="XMLID_19_" class="st1" points="53.6,47.6 54.4,46.3 49.8,43.7 49.1,45 	"/>
	<polygon id="XMLID_20_" class="st1" points="50.3,41.8 52.9,41.8 52.9,40.3 50.3,40.4 	"/>
	<polygon id="XMLID_21_" class="st1" points="49.7,38.5 54.2,35.8 53.5,34.5 49,37.2 	"/>
	<polygon id="XMLID_22_" class="st1" points="47.6,35.9 48.8,33.6 47.5,32.9 46.3,35.1 	"/>
	<polygon id="XMLID_23_" class="st1" points="42.9,45.9 45,40 38.9,41.9 39.4,43.3 42.5,42.3 41.5,45.4 	"/>
	<polygon id="XMLID_24_" class="st1" points="37.4,48.6 43.6,42.4 42.5,41.4 36.3,47.6 	"/>
</g>
</svg>
