<?xml version="1.0" encoding="utf-8"?>
<!-- Generator: Adobe Illustrator 19.0.0, SVG Export Plug-In . SVG Version: 6.00 Build 0)  -->
<svg version="1.1" id="Layer_1" xmlns="http://www.w3.org/2000/svg" xmlns:xlink="http://www.w3.org/1999/xlink" x="0px" y="0px"
	 viewBox="0 0 86.2 64.5" style="enable-background:new 0 0 86.2 64.5;" xml:space="preserve">
<style type="text/css">
	.st0{fill:#CEE5EF;}
	.st1{fill:#FFFFFF;}
	.st2{fill:#76C7DF;}
	.st3{fill:#F5A040;}
</style>
<g id="XMLID_88_">
	<path id="XMLID_89_" class="st0" d="M64.4,63.8H3.9c-1.8,0-3.3-1.5-3.3-3.3V27.7h67.2v32.8C67.7,62.3,66.2,63.8,64.4,63.8
		L64.4,63.8z"/>
	<path id="XMLID_90_" class="st1" d="M62.1,60.8h-56c-1.7,0-3.1-1.3-3.1-2.9V29.1h62.1v28.9C65.2,59.5,63.8,60.8,62.1,60.8
		L62.1,60.8z"/>
	<path id="XMLID_91_" class="st0" d="M67.9,27.7H0.8V2.6c0-1,0.8-1.8,1.8-1.8h63.5c1,0,1.8,0.8,1.8,1.8V27.7z"/>
	<rect id="XMLID_92_" x="26.6" y="26.9" class="st2" width="28.3" height="1.5"/>
	<path id="XMLID_93_" class="st2" d="M64.4,64.5H3.9V63h60.5c1.4,0,2.6-1.2,2.6-2.6V33.9h1.5v26.6C68.5,62.7,66.7,64.5,64.4,64.5
		L64.4,64.5z"/>
	<path id="XMLID_94_" class="st2" d="M68.7,15.8h-1.5V4.1c0-1.4-1.2-2.6-2.6-2.6h-46V0h46c2.3,0,4.1,1.9,4.1,4.1V15.8z"/>
	<rect id="XMLID_95_" x="10.5" class="st2" width="5.4" height="1.5"/>
	<path id="XMLID_96_" class="st2" d="M1.5,20.7H0V4.1C0,1.9,1.9,0,4.1,0h4.4v1.5H4.1c-1.4,0-2.6,1.2-2.6,2.6V20.7z"/>
	<rect id="XMLID_97_" x="27" y="35.9" class="st3" width="6.3" height="1.5"/>
	<rect id="XMLID_98_" x="27" y="41.2" class="st3" width="13.8" height="1.5"/>
	<rect id="XMLID_99_" x="27" y="46.7" class="st3" width="10" height="1.5"/>
	<rect id="XMLID_100_" x="27" y="52.3" class="st3" width="8.5" height="1.5"/>
	<polygon id="XMLID_101_" class="st0" points="45,51.9 40.1,52.2 40.4,47.3 78.9,8.8 83.5,13.4 	"/>
	<polygon id="XMLID_102_" class="st1" points="81,10.9 78.9,8.8 40.4,47.3 40.1,51.8 	"/>
	<path id="XMLID_104_" class="st2" d="M41.1,47.6l-0.3,3.8l3.8-0.3l37.8-37.8l-3.5-3.5L41.1,47.6z M39.3,53l0.4-6.1l0.2-0.2l39-39
		l5.7,5.7L45.3,52.6L39.3,53z"/>
	<polygon id="XMLID_106_" class="st2" points="82.3,11 81.3,9.9 85.1,6.1 86.2,7.1 	"/>
	<polygon id="XMLID_107_" class="st2" points="37.5,55.8 36.4,54.8 40.3,50.9 41.4,52 	"/>
	<polygon id="XMLID_108_" class="st2" points="60.8,36.3 56,31.5 57.1,30.4 61.9,35.2 	"/>
	<polygon id="XMLID_109_" class="st2" points="48,49 43.2,44.2 44.3,43.2 49.1,48 	"/>
	<polygon id="XMLID_110_" class="st2" points="71.8,32.5 70.8,31.4 82.9,19.3 80.2,16.7 81.3,15.6 85,19.3 	"/>
	<rect id="XMLID_111_" x="18.7" y="7.7" class="st1" width="2.4" height="1.5"/>
	<rect id="XMLID_112_" x="13.1" y="7.7" class="st1" width="2.4" height="1.5"/>
	<rect id="XMLID_113_" x="7.5" y="7.7" class="st1" width="2.4" height="1.5"/>
</g>
</svg>
