<?xml version="1.0" encoding="utf-8"?>
<!-- Generator: Adobe Illustrator 19.0.0, SVG Export Plug-In . SVG Version: 6.00 Build 0)  -->
<svg version="1.1" id="Layer_1" xmlns="http://www.w3.org/2000/svg" xmlns:xlink="http://www.w3.org/1999/xlink" x="0px" y="0px"
	 viewBox="0 0 74.8 45.2" style="enable-background:new 0 0 74.8 45.2;" xml:space="preserve">
<style type="text/css">
	.st0{fill:#FFFFFF;}
	.st1{fill:#D1E8F6;}
	.st2{fill:#76C7DF;}
	.st3{fill:#F6A03F;}
</style>
<g id="XMLID_1_">
	<path id="XMLID_2_" class="st0" d="M61.4,33.2H20.7c-1.1,0-2-0.9-2-2V2.8c0-1.1,0.9-2,2-2h40.8c1.1,0,2,0.9,2,2v28.4
		C63.4,32.3,62.5,33.2,61.4,33.2L61.4,33.2z"/>
	<path id="XMLID_3_" class="st1" d="M18.7,7.7V3c0-1.2,1-2.2,2.2-2.2h40.3c1.2,0,2.2,1,2.2,2.2v4.7H18.7z"/>
	<rect id="XMLID_4_" x="18.7" y="7.1" class="st2" width="44.8" height="1.5"/>
	<rect id="XMLID_5_" x="23.8" y="3.9" class="st3" width="1.8" height="1.5"/>
	<rect id="XMLID_6_" x="27.9" y="3.9" class="st3" width="1.8" height="1.5"/>
	<rect id="XMLID_7_" x="32.1" y="3.9" class="st3" width="1.8" height="1.5"/>
	<path id="XMLID_8_" class="st2" d="M61.1,34h-0.9v-1.5h0.9c0.9,0,1.6-0.7,1.6-1.6V3.1c0-0.9-0.7-1.6-1.6-1.6H54V0h7.1
		c1.7,0,3.1,1.4,3.1,3.1v27.7C64.2,32.6,62.8,34,61.1,34L61.1,34z"/>
	<rect id="XMLID_9_" x="45.6" class="st2" width="5.7" height="1.5"/>
	<path id="XMLID_10_" class="st2" d="M21.7,34H21c-1.7,0-3.1-1.4-3.1-3.1V3.1C17.9,1.4,19.3,0,21,0h23.4v1.5H21
		c-0.9,0-1.6,0.7-1.6,1.6v27.7c0,0.9,0.7,1.6,1.6,1.6h0.7V34z"/>
	<path id="XMLID_11_" class="st1" d="M60.6,44.5c0-10.8-8.7-19.5-19.5-19.5c-10.8,0-19.5,8.7-19.5,19.5H60.6z"/>
	<path id="XMLID_12_" class="st2" d="M61.4,44.5h-1.5c0-10.4-8.4-18.8-18.8-18.8c-10.3,0-18.8,8.4-18.8,18.8h-1.5
		c0-11.2,9.1-20.3,20.3-20.3C52.3,24.2,61.4,33.3,61.4,44.5L61.4,44.5z"/>
	<path id="XMLID_13_" class="st1" d="M57.6,44.5c0-9.2-7.4-16.6-16.6-16.6c-9.1,0-16.5,7.4-16.5,16.6H57.6z"/>
	<path id="XMLID_14_" class="st0" d="M50.1,44.5c0-5-4-9-9-9c-5,0-9,4-9,9H50.1z"/>
	<path id="XMLID_15_" class="st3" d="M43.1,44.5c0-1.1-0.9-2.1-2.1-2.1s-2,0.9-2,2.1H43.1z"/>
	<path id="XMLID_16_" class="st2" d="M58.4,44.5h-1.5c0-8.7-7.1-15.8-15.8-15.8c-8.7,0-15.8,7.1-15.8,15.8h-1.5
		c0-9.6,7.7-17.3,17.3-17.3C50.6,27.2,58.4,34.9,58.4,44.5L58.4,44.5z"/>
	<polygon id="XMLID_17_" class="st2" points="41.8,30.8 40.3,30.8 40.3,27.7 41.8,27.7 	"/>
	
		<rect id="XMLID_18_" x="47.2" y="29.8" transform="matrix(0.8575 0.5145 -0.5145 0.8575 22.9204 -20.1895)" class="st2" width="1.5" height="3"/>
	<polygon id="XMLID_19_" class="st2" points="52.9,38.5 52.2,37.2 55,35.5 55.8,36.9 	"/>
	<polygon id="XMLID_20_" class="st2" points="29.3,38.5 26.4,36.8 27.2,35.5 30,37.2 	"/>
	<polygon id="XMLID_21_" class="st2" points="34.4,33 32.9,30.3 34.2,29.6 35.7,32.3 	"/>
	<polygon id="XMLID_22_" class="st3" points="41.1,42.9 48.6,36 49,36.4 42.2,44 	"/>
	<rect id="XMLID_23_" x="40.3" y="21.3" class="st2" width="1.5" height="3.6"/>
	<path id="XMLID_24_" class="st0" d="M44.2,22.8h-6.3c-0.5,0-0.8-0.4-0.8-0.8v-2.3c0-0.4,0.4-0.8,0.8-0.8h6.3c0.5,0,0.8,0.4,0.8,0.8
		v2.3C45,22.5,44.6,22.8,44.2,22.8L44.2,22.8z"/>
	<path id="XMLID_25_" class="st2" d="M37.9,19.7l-0.1,2.4l6.3,0c0,0,0.1,0,0.1,0v-2.3L37.9,19.7z M44.2,23.6h-6.3
		c-0.9,0-1.6-0.7-1.6-1.5v-2.3c0-0.9,0.7-1.5,1.6-1.5h6.3c0.9,0,1.6,0.7,1.6,1.5v2.3C45.8,22.9,45,23.6,44.2,23.6L44.2,23.6z"/>
	<polygon id="XMLID_28_" class="st2" points="52.2,27.9 50.9,27.2 52.4,24.7 53.6,25.5 	"/>
	<path id="XMLID_29_" class="st0" d="M54.3,27.2L50.4,25c-0.4-0.2-0.5-0.7-0.3-1.1l0.7-1.2c0.2-0.4,0.7-0.5,1.1-0.3l3.9,2.2
		c0.4,0.2,0.5,0.7,0.3,1.1l-0.7,1.2C55.2,27.3,54.7,27.5,54.3,27.2L54.3,27.2z"/>
	<path id="XMLID_30_" class="st2" d="M54.7,26.6C54.7,26.6,54.7,26.6,54.7,26.6l0.8-1.2L51.6,23l-0.8,1.2L54.7,26.6z M54.7,28.1
		c-0.3,0-0.5-0.1-0.8-0.2l-3.9-2.2c-0.7-0.4-1-1.4-0.6-2.1l0.7-1.2c0.2-0.3,0.5-0.6,0.9-0.7s0.8-0.1,1.2,0.1l3.9,2.2
		c0.7,0.4,1,1.4,0.6,2.1l-0.7,1.2C55.8,27.8,55.2,28.1,54.7,28.1L54.7,28.1z"/>
	<polygon id="XMLID_33_" class="st2" points="29.6,27.9 28.2,25.5 29.5,24.7 30.9,27.2 	"/>
	<path id="XMLID_34_" class="st0" d="M27.6,27.2l3.9-2.2c0.4-0.2,0.5-0.7,0.3-1.1L31,22.7c-0.2-0.4-0.7-0.5-1.1-0.3l-3.9,2.2
		c-0.4,0.2-0.5,0.7-0.3,1.1l0.7,1.2C26.7,27.3,27.2,27.5,27.6,27.2L27.6,27.2z"/>
	<path id="XMLID_35_" class="st2" d="M30.4,23.1l-3.9,2.2l0.7,1.3l0.1,0l3.9-2.2L30.4,23.1z M27.2,28.1c-0.1,0-0.3,0-0.4-0.1
		c-0.4-0.1-0.7-0.4-0.9-0.7l-0.7-1.2c-0.2-0.4-0.3-0.8-0.1-1.2c0.1-0.4,0.4-0.7,0.7-1l3.9-2.2c0.7-0.4,1.7-0.2,2.1,0.6l0.7,1.2
		c0.2,0.4,0.3,0.8,0.2,1.2c-0.1,0.4-0.4,0.7-0.7,0.9l-3.9,2.2C27.7,28,27.4,28.1,27.2,28.1L27.2,28.1z"/>
	<rect id="XMLID_38_" x="4.6" y="43.7" class="st2" width="70.2" height="1.5"/>
	<rect id="XMLID_39_" y="43.7" class="st2" width="2.7" height="1.5"/>
</g>
</svg>
