<?xml version="1.0" encoding="utf-8"?>
<!-- Generator: Adobe Illustrator 19.0.0, SVG Export Plug-In . SVG Version: 6.00 Build 0)  -->
<svg version="1.1" id="Analysis" xmlns="http://www.w3.org/2000/svg" xmlns:xlink="http://www.w3.org/1999/xlink" x="0px" y="0px"
	 viewBox="0 0 44.5 56.2" style="enable-background:new 0 0 44.5 56.2;" xml:space="preserve">
<style type="text/css">
	.st0{fill:#FFFFFF;}
	.st1{fill:#76C7DF;}
	.st2{fill:#CEE5F0;}
	.st3{fill:#FEFEFE;}
	.st4{fill:#D6E146;}
	.st5{fill:#E2E657;}
</style>
<g id="XMLID_81_">
	<path id="XMLID_82_" class="st0" d="M2.7,55.4h30.4c1.1,0,2-0.9,2-2V2.7c0-1.1-0.9-2-2-2H2.7c-1.1,0-2,0.9-2,2v50.7
		C0.8,54.5,1.6,55.4,2.7,55.4L2.7,55.4z"/>
	<path id="XMLID_83_" class="st1" d="M34.3,7.3h1.5V3.8C35.8,1.7,34.1,0,32,0H14.1v1.5H32c1.3,0,2.3,1,2.3,2.3V7.3z"/>
	<path id="XMLID_84_" class="st1" d="M3.8,56.2H32c2.1,0,3.8-1.7,3.8-3.8V26.1h-1.5v26.2c0,1.3-1,2.3-2.3,2.3H3.8
		c-1.3,0-2.3-1-2.3-2.3V3.8c0-1.3,1-2.3,2.3-2.3H6V0H3.8C1.7,0,0,1.7,0,3.8v48.5C0,54.4,1.7,56.2,3.8,56.2L3.8,56.2z"/>
	<rect id="XMLID_85_" x="7.4" class="st1" width="4.9" height="1.5"/>
	<rect id="XMLID_86_" x="12.8" y="4.1" class="st1" width="10.2" height="1.5"/>
	<path id="XMLID_88_" class="st1" d="M17.9,53.3c-1.3,0-2.4-1.1-2.4-2.4c0-1.3,1.1-2.4,2.4-2.4c1.3,0,2.4,1.1,2.4,2.4
		C20.3,52.2,19.2,53.3,17.9,53.3L17.9,53.3z M17.9,50c-0.5,0-0.9,0.4-0.9,0.9c0,0.5,0.4,0.9,0.9,0.9c0.5,0,0.9-0.4,0.9-0.9
		C18.8,50.4,18.4,50,17.9,50L17.9,50z"/>
	<rect id="XMLID_90_" x="4.2" y="43.1" class="st2" width="27.5" height="1.8"/>
	<path id="XMLID_91_" class="st3" d="M18.2,10.9v11.6c0,0.7,0.5,1.2,1.1,1.2H20V26v4.5c0,0.2,0.3,0.3,0.5,0.1l5.8-7h16.4
		c0.6,0,1.1-0.5,1.1-1.2V10.9c0-0.6-0.5-1.1-1.1-1.1H19.3C18.7,9.7,18.2,10.2,18.2,10.9L18.2,10.9z"/>
	<path id="XMLID_93_" class="st4" d="M20.2,31.4c-0.1,0-0.2,0-0.3-0.1c-0.4-0.1-0.7-0.5-0.7-0.9v-6.1c-1-0.1-1.8-0.9-1.8-1.9V10.9
		c0-1.1,0.9-1.9,1.9-1.9h23.3c1,0,1.9,0.9,1.9,1.9v11.6c0,1.1-0.9,1.9-1.9,1.9h-16L21,31.1C20.8,31.3,20.5,31.4,20.2,31.4L20.2,31.4
		z M19.3,10.5c-0.2,0-0.4,0.2-0.4,0.4v11.6c0,0.2,0.2,0.4,0.4,0.4h1.4v6.2l5.2-6.2h16.7c0.2,0,0.4-0.2,0.4-0.4V10.9
		c0-0.2-0.2-0.4-0.4-0.4H19.3z"/>
	<rect id="XMLID_95_" x="23.9" y="12.9" class="st5" width="14.2" height="1.5"/>
	<rect id="XMLID_96_" x="23.9" y="16" class="st5" width="14.2" height="1.5"/>
	<rect id="XMLID_97_" x="30.4" y="19" class="st5" width="7.7" height="1.5"/>
</g>
</svg>
