<?xml version="1.0" encoding="utf-8"?>
<!-- Generator: Adobe Illustrator 19.0.0, SVG Export Plug-In . SVG Version: 6.00 Build 0)  -->
<svg version="1.1" id="Layer_1" xmlns="http://www.w3.org/2000/svg" xmlns:xlink="http://www.w3.org/1999/xlink" x="0px" y="0px"
	 viewBox="0 0 57.1 35.8" style="enable-background:new 0 0 57.1 35.8;" xml:space="preserve">
<style type="text/css">
	.st0{fill:#CEE5EF;}
	.st1{fill:#FFFFFF;}
	.st2{fill:#76C7DF;}
	.st3{fill:#D6E047;}
	.st4{fill:#2A83C6;}
</style>
<g id="XMLID_79_">
	<rect id="XMLID_80_" x="0.8" y="0.8" class="st0" width="55.6" height="34.2"/>
	<rect id="XMLID_81_" x="4.1" y="3.8" class="st1" width="48.9" height="28.2"/>
	<path id="XMLID_83_" class="st2" d="M1.5,34.3h54.1V1.5H1.5V34.3z M57.1,35.8H0V0h57.1V35.8z"/>
	<polygon id="XMLID_85_" class="st3" points="44.5,21.7 42.5,21.7 42.5,28 44.5,27.2 46.6,28 46.6,21.7 	"/>
	<path id="XMLID_87_" class="st3" d="M44.6,26.4l1.3,0.5v-4.5h-2.6v4.5L44.6,26.4z M47.3,29.1L44.6,28l-2.8,1.1v-8.2h5.6V29.1z"/>
	<path id="XMLID_89_" class="st1" d="M49.7,19.7c0,0.7-0.6,1.2-0.9,1.8c-0.3,0.6-0.2,1.4-0.7,1.8c-0.5,0.5-1.2,0.4-1.8,0.7
		c-0.6,0.3-1.1,0.9-1.8,0.9c-0.7,0-1.2-0.6-1.8-0.9c-0.6-0.2-1.4-0.2-1.8-0.7c-0.5-0.4-0.4-1.2-0.7-1.8c-0.2-0.6-0.9-1.1-0.9-1.8
		c0-0.7,0.6-1.2,0.9-1.8c0.3-0.6,0.2-1.4,0.7-1.9c0.5-0.4,1.2-0.4,1.8-0.7c0.6-0.2,1.1-0.8,1.8-0.8c0.7,0,1.2,0.6,1.8,0.8
		c0.6,0.3,1.4,0.2,1.8,0.7c0.5,0.5,0.4,1.3,0.7,1.9C49,18.5,49.7,19.1,49.7,19.7L49.7,19.7z"/>
	<path id="XMLID_91_" class="st4" d="M44.6,15.4c-0.2,0-0.5,0.2-0.7,0.4c-0.2,0.1-0.5,0.3-0.8,0.4c-0.3,0.1-0.6,0.2-0.9,0.2
		c-0.3,0.1-0.6,0.1-0.7,0.3c-0.1,0.1-0.2,0.5-0.3,0.7c-0.1,0.3-0.1,0.6-0.3,0.9c-0.1,0.3-0.3,0.5-0.4,0.7c-0.2,0.3-0.3,0.5-0.3,0.7
		s0.2,0.5,0.3,0.7c0.2,0.2,0.3,0.5,0.4,0.7c0.1,0.3,0.2,0.6,0.3,0.9c0.1,0.3,0.1,0.6,0.3,0.8c0.1,0.1,0.4,0.2,0.7,0.3
		c0.3,0.1,0.6,0.1,0.9,0.2c0.3,0.1,0.5,0.3,0.8,0.4c0.3,0.2,0.5,0.4,0.7,0.4c0.2,0,0.5-0.2,0.7-0.4c0.3-0.1,0.5-0.3,0.8-0.4
		c0.3-0.1,0.6-0.2,0.9-0.2c0.3-0.1,0.6-0.1,0.7-0.3c0.1-0.1,0.2-0.5,0.3-0.8c0.1-0.3,0.1-0.6,0.3-0.9c0.1-0.3,0.3-0.5,0.4-0.7
		c0.2-0.3,0.3-0.5,0.3-0.7s-0.2-0.5-0.3-0.7c-0.2-0.2-0.3-0.5-0.4-0.7c-0.1-0.3-0.2-0.6-0.3-0.9c-0.1-0.3-0.1-0.7-0.3-0.8
		c-0.1-0.1-0.4-0.2-0.7-0.3c-0.3-0.1-0.6-0.1-0.9-0.2c-0.3-0.1-0.5-0.3-0.8-0.4C45,15.6,44.7,15.4,44.6,15.4L44.6,15.4z M44.6,25.6
		c-0.7,0-1.2-0.3-1.6-0.6c-0.2-0.1-0.3-0.2-0.5-0.3c-0.1-0.1-0.4-0.1-0.6-0.2c-0.5-0.1-1-0.2-1.5-0.7c-0.4-0.4-0.6-1-0.7-1.5
		c-0.1-0.2-0.1-0.4-0.1-0.6c-0.1-0.1-0.2-0.3-0.3-0.5c-0.3-0.4-0.6-0.9-0.6-1.6c0-0.7,0.3-1.2,0.6-1.6c0.1-0.2,0.3-0.4,0.3-0.5
		c0.1-0.1,0.1-0.3,0.1-0.6c0.1-0.5,0.2-1.1,0.7-1.5c0.5-0.5,1-0.6,1.5-0.7c0.2,0,0.5-0.1,0.6-0.1s0.3-0.2,0.5-0.3
		c0.4-0.3,0.9-0.6,1.6-0.6c0.6,0,1.1,0.3,1.6,0.6c0.2,0.1,0.3,0.2,0.5,0.3c0.1,0.1,0.4,0.1,0.6,0.1c0.5,0.1,1,0.2,1.5,0.7
		c0.4,0.4,0.6,1,0.7,1.5c0.1,0.2,0.1,0.4,0.1,0.6c0.1,0.1,0.2,0.3,0.3,0.5c0.3,0.4,0.6,0.9,0.6,1.6c0,0.7-0.3,1.2-0.6,1.6
		c-0.1,0.2-0.3,0.3-0.3,0.5c-0.1,0.2-0.1,0.4-0.1,0.6c-0.1,0.5-0.2,1.1-0.7,1.5c-0.5,0.5-1,0.6-1.5,0.7c-0.2,0.1-0.5,0.1-0.6,0.2
		c-0.1,0.1-0.3,0.2-0.5,0.3C45.7,25.3,45.2,25.6,44.6,25.6L44.6,25.6z"/>
	<path id="XMLID_94_" class="st3" d="M44.6,15.4c-0.2,0-0.5,0.2-0.7,0.4c-0.2,0.1-0.5,0.3-0.8,0.4c-0.3,0.1-0.6,0.2-0.9,0.2
		c-0.3,0.1-0.6,0.1-0.7,0.3c-0.1,0.1-0.2,0.5-0.3,0.7c-0.1,0.3-0.1,0.6-0.3,0.9c-0.1,0.3-0.3,0.5-0.4,0.7c-0.2,0.3-0.3,0.5-0.3,0.7
		s0.2,0.5,0.3,0.7c0.2,0.2,0.3,0.5,0.4,0.7c0.1,0.3,0.2,0.6,0.3,0.9c0.1,0.3,0.1,0.6,0.3,0.8c0.1,0.1,0.4,0.2,0.7,0.3
		c0.3,0.1,0.6,0.1,0.9,0.2c0.3,0.1,0.5,0.3,0.8,0.4c0.3,0.2,0.5,0.4,0.7,0.4c0.2,0,0.5-0.2,0.7-0.4c0.3-0.1,0.5-0.3,0.8-0.4
		c0.3-0.1,0.6-0.2,0.9-0.2c0.3-0.1,0.6-0.1,0.7-0.3c0.1-0.1,0.2-0.5,0.3-0.8c0.1-0.3,0.1-0.6,0.3-0.9c0.1-0.3,0.3-0.5,0.4-0.7
		c0.2-0.3,0.3-0.5,0.3-0.7s-0.2-0.5-0.3-0.7c-0.2-0.2-0.3-0.5-0.4-0.7c-0.1-0.3-0.2-0.6-0.3-0.9c-0.1-0.3-0.1-0.7-0.3-0.8
		c-0.1-0.1-0.4-0.2-0.7-0.3c-0.3-0.1-0.6-0.1-0.9-0.2c-0.3-0.1-0.5-0.3-0.8-0.4C45,15.6,44.7,15.4,44.6,15.4L44.6,15.4z M44.6,25.6
		c-0.7,0-1.2-0.3-1.6-0.6c-0.2-0.1-0.3-0.2-0.5-0.3c-0.1-0.1-0.4-0.1-0.6-0.2c-0.5-0.1-1-0.2-1.5-0.7c-0.4-0.4-0.6-1-0.7-1.5
		c-0.1-0.2-0.1-0.4-0.1-0.6c-0.1-0.1-0.2-0.3-0.3-0.5c-0.3-0.4-0.6-0.9-0.6-1.6c0-0.7,0.3-1.2,0.6-1.6c0.1-0.2,0.3-0.4,0.3-0.5
		c0.1-0.1,0.1-0.3,0.1-0.6c0.1-0.5,0.2-1.1,0.7-1.5c0.5-0.5,1-0.6,1.5-0.7c0.2,0,0.5-0.1,0.6-0.1s0.3-0.2,0.5-0.3
		c0.4-0.3,0.9-0.6,1.6-0.6c0.6,0,1.1,0.3,1.6,0.6c0.2,0.1,0.3,0.2,0.5,0.3c0.1,0.1,0.4,0.1,0.6,0.1c0.5,0.1,1,0.2,1.5,0.7
		c0.4,0.4,0.6,1,0.7,1.5c0.1,0.2,0.1,0.4,0.1,0.6c0.1,0.1,0.2,0.3,0.3,0.5c0.3,0.4,0.6,0.9,0.6,1.6c0,0.7-0.3,1.2-0.6,1.6
		c-0.1,0.2-0.3,0.3-0.3,0.5c-0.1,0.2-0.1,0.4-0.1,0.6c-0.1,0.5-0.2,1.1-0.7,1.5c-0.5,0.5-1,0.6-1.5,0.7c-0.2,0.1-0.5,0.1-0.6,0.2
		c-0.1,0.1-0.3,0.2-0.5,0.3C45.7,25.3,45.2,25.6,44.6,25.6L44.6,25.6z"/>
	<rect id="XMLID_96_" x="8.3" y="8.4" class="st2" width="26.7" height="1.5"/>
	<rect id="XMLID_97_" x="8.3" y="11.2" class="st2" width="26.7" height="1.5"/>
	<rect id="XMLID_98_" x="8.3" y="13.9" class="st2" width="26.7" height="1.5"/>
	<rect id="XMLID_99_" x="8.3" y="16.6" class="st2" width="26.7" height="1.5"/>
	<rect id="XMLID_100_" x="8.3" y="19.3" class="st2" width="26.7" height="1.5"/>
</g>
</svg>
