<?xml version="1.0" encoding="utf-8"?>
<!-- Generator: Adobe Illustrator 19.0.0, SVG Export Plug-In . SVG Version: 6.00 Build 0)  -->
<svg version="1.1" id="Layer_1" xmlns="http://www.w3.org/2000/svg" xmlns:xlink="http://www.w3.org/1999/xlink" x="0px" y="0px"
	 viewBox="0 0 90.3 63.2" style="enable-background:new 0 0 90.3 63.2;" xml:space="preserve">
<style type="text/css">
	.st0{fill:#FFFFFF;}
	.st1{fill:#76C7DF;}
	.st2{fill:#CEE5EF;}
</style>
<g id="XMLID_43_">
	<path id="XMLID_44_" class="st0" d="M85,59.2H5.8c-0.5,0-1-0.5-1-1V1.8c0-0.6,0.5-1,1-1H85c0.5,0,1,0.4,1,1v56.4
		C86,58.7,85.6,59.2,85,59.2L85,59.2z"/>
	<rect id="XMLID_45_" x="68.1" class="st1" width="5.6" height="1.5"/>
	<path id="XMLID_46_" class="st1" d="M5.5,13.3H4V2.8C4,1.2,5.2,0,6.8,0h57.8v1.5H6.8c-0.7,0-1.2,0.6-1.2,1.3V13.3z"/>
	<path id="XMLID_47_" class="st1" d="M86.8,26.1h-1.5V2.8c0-0.7-0.6-1.3-1.2-1.3h-7.9V0H84c1.5,0,2.7,1.2,2.7,2.8V26.1z"/>
	<rect id="XMLID_48_" x="8.7" y="5.4" class="st2" width="72.9" height="47.4"/>
	<rect id="XMLID_49_" x="45.2" y="5.4" class="st2" width="36.5" height="47.4"/>
	<path id="XMLID_50_" class="st0" d="M84.6,62.4H5.3c-1.9,0-3.5-1.4-3.9-3.3l-0.6-3.5h36.8l1.4,2h10.1l1.5-2h38.7l-0.5,3
		C88.6,60.8,86.8,62.4,84.6,62.4L84.6,62.4z"/>
	<path id="XMLID_51_" class="st1" d="M1.8,56.5L2.2,59c0.3,1.5,1.6,2.6,3.1,2.6h79.3c1.8,0,3.3-1.3,3.6-3.1l0.3-2.1H51.1l-1.5,2
		H38.7l-1.4-2H1.8z M84.6,63.2H5.3c-2.3,0-4.2-1.6-4.6-3.9L0,55h38l1.4,2h9.4l1.5-2h40l-0.6,3.9C89.3,61.3,87.2,63.2,84.6,63.2
		L84.6,63.2z"/>
	<rect id="XMLID_54_" x="47.9" y="11" class="st1" width="14.3" height="1.5"/>
	<rect id="XMLID_55_" x="47.9" y="19.4" class="st1" width="31.6" height="1.5"/>
	<rect id="XMLID_56_" x="47.9" y="23.8" class="st1" width="31.6" height="1.5"/>
	<rect id="XMLID_57_" x="47.9" y="28.1" class="st1" width="27.2" height="1.5"/>
	<rect id="XMLID_58_" x="47.9" y="32.5" class="st1" width="27.2" height="1.5"/>
	<rect id="XMLID_59_" x="47.9" y="36.8" class="st1" width="27.2" height="1.5"/>
	<rect id="XMLID_60_" x="47.9" y="41.2" class="st1" width="19.2" height="1.5"/>
	<path id="XMLID_61_" class="st1" d="M21.5,27.9h-0.2c-0.4,0-0.7-0.3-0.7-2l-0.7-5.5c-0.1-0.9,0.3-1.7,1.1-2.1
		c0.3-0.2,0.5-0.3,0.5-0.3c-2.1-1.3-1.7-2.8-1.6-2.9l0,0c1,1.5,6.5,0.8,9.8,1.3c0.8,0.1,1.4,0.7,1.5,1.5l0.1,0.6
		c0.6,0,1.1,0.5,1.1,1.1l-0.9,7.7c0,0.4-0.3,0.7-0.7,0.7H21.5z"/>
	<path id="XMLID_62_" class="st1" d="M21.5,27.1h9.2l0.9-7.6c0-0.1-0.1-0.2-0.3-0.2h-0.7l-0.2-1.3c0-0.4-0.3-0.7-0.8-0.8
		c-1.1-0.2-2.5-0.2-3.8-0.2c-1.8,0-3.4-0.1-4.6-0.3c0.3,0.3,0.6,0.5,0.9,0.7l1.1,0.7l-1,0.7c0,0-0.3,0.2-0.6,0.4
		c-0.5,0.3-0.7,0.8-0.7,1.3l0.7,5.5C21.4,26.5,21.5,26.9,21.5,27.1L21.5,27.1z M30.8,28.7h-9.6c-1.5,0-1.5-1.9-1.5-2.9l-0.7-5.4
		c-0.1-1,0.3-2,1-2.6c-0.9-0.9-1.3-2-1-3.1l0.2-0.7l0.9,0.1l0.3,0.1l0.1,0.2c0.4,0.6,3.3,0.7,5.2,0.7c1.4,0,2.9,0.1,4.1,0.2
		c1.1,0.2,2,1.1,2.2,2.2v0c0.7,0.3,1.2,1,1.2,1.8l-0.9,7.8C32.3,28.1,31.7,28.7,30.8,28.7L30.8,28.7z"/>
	<path id="XMLID_65_" class="st0" d="M33,25.6c0,0.4-0.3,0.7-0.7,0.7c-0.4,0-0.7-0.3-0.7-0.7v-0.7c0-0.4,0.3-0.7,0.7-0.7
		c0.4,0,0.7,0.3,0.7,0.7V25.6z"/>
	<path id="XMLID_66_" class="st1" d="M32.3,27.1c-0.9,0-1.6-0.7-1.6-1.5v-0.7c0-0.9,0.7-1.6,1.6-1.6c0.9,0,1.5,0.7,1.5,1.6v0.7
		C33.8,26.4,33.1,27.1,32.3,27.1L32.3,27.1z"/>
	<path id="XMLID_67_" class="st0" d="M20.6,25.6c0,0.4-0.3,0.7-0.7,0.7s-0.7-0.3-0.7-0.7v-0.7c0-0.4,0.3-0.7,0.7-0.7
		s0.7,0.3,0.7,0.7V25.6z"/>
	<path id="XMLID_68_" class="st1" d="M19.9,27.1c-0.9,0-1.6-0.7-1.6-1.5v-0.7c0-0.9,0.7-1.6,1.6-1.6s1.6,0.7,1.6,1.6v0.7
		C21.5,26.4,20.7,27.1,19.9,27.1L19.9,27.1z"/>
	<path id="XMLID_69_" class="st2" d="M34,43.8V39c0-3.7-3.5-6.7-7.8-6.7c-4.3,0-7.8,3-7.8,6.7v4.8H34z"/>
	<path id="XMLID_70_" class="st1" d="M34.8,43.8h-1.6V39c0-3.2-3.1-5.9-7-5.9c-3.9,0-7,2.6-7,5.9v4.8h-1.6V39c0-4.1,3.9-7.5,8.6-7.5
		s8.6,3.4,8.6,7.5V43.8z"/>
	<rect id="XMLID_71_" x="22" y="38.6" class="st1" width="1.6" height="5.3"/>
	<rect id="XMLID_72_" x="28.8" y="38.6" class="st1" width="1.6" height="5.3"/>
	<path id="XMLID_73_" class="st0" d="M25.9,35L25.9,35c-0.8,0-1.5-0.7-1.5-1.4v-3.3c0-0.7,0.6-1.2,1.3-1.2h0.4
		c0.7,0,1.2,0.5,1.2,1.2v3.3C27.4,34.4,26.7,35,25.9,35L25.9,35z"/>
	<path id="XMLID_74_" class="st1" d="M25.7,29.8c-0.3,0-0.5,0.2-0.5,0.4v3.3c0,0.3,0.3,0.6,0.7,0.6c0.3,0,0.6-0.3,0.6-0.6v-3.3
		c0-0.2-0.2-0.4-0.4-0.4H25.7z M25.9,35.8c-1.3,0-2.3-1-2.3-2.3v-3.3c0-1.2,0.9-2.1,2.1-2.1h0.4c1.2,0,2.1,0.9,2.1,2.1v3.3
		C28.2,34.8,27.2,35.8,25.9,35.8L25.9,35.8z"/>
	<path id="XMLID_77_" class="st0" d="M26,32.1L26,32.1c-3.1,0-5.6-2.5-5.6-5.6v-3.8c0-3,2.5-3,5.6-3s5.6-0.1,5.6,3v3.8
		C31.6,29.7,29.1,32.1,26,32.1L26,32.1z"/>
	<path id="XMLID_78_" class="st1" d="M25.7,20.7c-1.3,0-2.5,0-3.3,0.3c-0.5,0.2-1,0.6-1,1.8v3.8c0,2.6,2.1,4.7,4.7,4.7
		s4.7-2.1,4.7-4.7v-3.8c0-1.2-0.5-1.6-1-1.8c-0.8-0.3-2.1-0.3-3.5-0.3h-0.4H25.7z M26,33c-3.5,0-6.4-2.9-6.4-6.4v-3.8
		c0-1.7,0.7-2.8,2.1-3.4c1.1-0.4,2.6-0.4,4.1-0.4h0.4c1.6,0,3,0,4.1,0.4c1.4,0.5,2.1,1.7,2.1,3.4v3.8C32.4,30.1,29.5,33,26,33L26,33
		z"/>
</g>
</svg>
