<?xml version="1.0" encoding="utf-8"?>
<!-- Generator: Adobe Illustrator 19.0.0, SVG Export Plug-In . SVG Version: 6.00 Build 0)  -->
<svg version="1.1" id="Analysis" xmlns="http://www.w3.org/2000/svg" xmlns:xlink="http://www.w3.org/1999/xlink" x="0px" y="0px"
	 viewBox="0 0 80.2 85.7" style="enable-background:new 0 0 80.2 85.7;" xml:space="preserve">
<style type="text/css">
	.st0{fill:#CEE5F0;}
	.st1{fill:#76C7DF;}
	.st2{fill:#FFFFFF;}
	.st3{fill:#D6E146;}
	.st4{fill:#F6A03F;}
</style>
<g id="XMLID_57_">
	<path id="XMLID_58_" class="st0" d="M41.3,84.9H5.7c-2.7,0-4.9-2.2-4.9-4.9V5.7c0-2.7,2.2-4.9,4.9-4.9h35.6c2.7,0,4.9,2.2,4.9,4.9
		V80C46.2,82.7,44,84.9,41.3,84.9L41.3,84.9z"/>
	<rect id="XMLID_59_" x="7.5" class="st1" width="2.9" height="1.5"/>
	<path id="XMLID_60_" class="st1" d="M42.3,85.7H4.6C2.1,85.7,0,83.6,0,81V4.6C0,2.1,2.1,0,4.6,0h1.1v1.5H4.6
		c-1.7,0-3.1,1.4-3.1,3.1V81c0,1.7,1.4,3.1,3.1,3.1h37.7c1.7,0,3.1-1.4,3.1-3.1V44.8H47V81C47,83.6,44.9,85.7,42.3,85.7L42.3,85.7z"
		/>
	<path id="XMLID_61_" class="st1" d="M47,7.3h-1.5V4.6c0-1.7-1.4-3.1-3.1-3.1H11.8V0h30.5C44.9,0,47,2.1,47,4.6V7.3z"/>
	<rect id="XMLID_62_" x="16.8" y="5.6" class="st1" width="13.4" height="1.5"/>
	<path id="XMLID_64_" class="st1" d="M23.5,77.5c-1.2,0-2.2,1-2.2,2.2c0,1.2,1,2.2,2.2,2.2c1.2,0,2.2-1,2.2-2.2
		C25.7,78.5,24.7,77.5,23.5,77.5L23.5,77.5z M23.5,83.3c-2,0-3.7-1.6-3.7-3.7c0-2,1.6-3.7,3.7-3.7c2,0,3.7,1.6,3.7,3.7
		C27.2,81.7,25.5,83.3,23.5,83.3L23.5,83.3z"/>
	<rect id="XMLID_66_" x="3.2" y="9.1" class="st2" width="40.1" height="66"/>
	<path id="XMLID_67_" class="st0" d="M14.6,70.8H7.7c-0.2,0-0.4-0.2-0.4-0.4v-6.9c0-0.2,0.2-0.4,0.4-0.4h6.9c0.2,0,0.4,0.2,0.4,0.4
		v6.9C14.9,70.6,14.8,70.8,14.6,70.8L14.6,70.8z"/>
	<path id="XMLID_68_" class="st1" d="M37.8,70.8H31c-0.2,0-0.4-0.2-0.4-0.4v-6.9c0-0.2,0.2-0.4,0.4-0.4h6.9c0.2,0,0.4,0.2,0.4,0.4
		v6.9C38.2,70.6,38,70.8,37.8,70.8L37.8,70.8z"/>
	<path id="XMLID_69_" class="st3" d="M14.8,59.5H7.9c-0.2,0-0.4-0.2-0.4-0.4v-6.9c0-0.2,0.2-0.4,0.4-0.4h6.9c0.2,0,0.4,0.2,0.4,0.4
		v6.9C15.2,59.3,15,59.5,14.8,59.5L14.8,59.5z"/>
	<path id="XMLID_70_" class="st4" d="M26.4,59.5h-6.9c-0.2,0-0.4-0.2-0.4-0.4v-6.9c0-0.2,0.2-0.4,0.4-0.4h6.9c0.2,0,0.4,0.2,0.4,0.4
		v6.9C26.8,59.3,26.6,59.5,26.4,59.5L26.4,59.5z"/>
	<path id="XMLID_71_" class="st1" d="M38.1,59.5h-6.9c-0.2,0-0.4-0.2-0.4-0.4v-6.9c0-0.2,0.2-0.4,0.4-0.4h6.9c0.2,0,0.4,0.2,0.4,0.4
		v6.9C38.5,59.3,38.3,59.5,38.1,59.5L38.1,59.5z"/>
	<path id="XMLID_72_" class="st0" d="M26.6,48.2h-6.9c-0.2,0-0.4-0.2-0.4-0.4V41c0-0.2,0.2-0.4,0.4-0.4h6.9c0.2,0,0.4,0.2,0.4,0.4
		v6.9C27,48,26.9,48.2,26.6,48.2L26.6,48.2z"/>
	<path id="XMLID_73_" class="st3" d="M14.8,37H7.9c-0.2,0-0.4-0.2-0.4-0.4v-6.9c0-0.2,0.2-0.4,0.4-0.4h6.9c0.2,0,0.4,0.2,0.4,0.4
		v6.9C15.2,36.8,15,37,14.8,37L14.8,37z"/>
	<path id="XMLID_74_" class="st0" d="M26.2,25.7h-6.9c-0.2,0-0.4-0.2-0.4-0.4v-6.9c0-0.2,0.2-0.4,0.4-0.4h6.9c0.2,0,0.4,0.2,0.4,0.4
		v6.9C26.6,25.5,26.4,25.7,26.2,25.7L26.2,25.7z"/>
	<path id="XMLID_75_" class="st2" d="M64.9,38.1c6.8-6.8,6.8-17.9,0-24.7c-6.8-6.8-17.9-6.8-24.7,0c-5.9,5.9-6.7,14.9-2.4,21.7
		l-5,10.2c-0.1,0.3,0.1,0.6,0.4,0.4l10.2-5.1C50.2,44.8,59.1,43.9,64.9,38.1L64.9,38.1z"/>
	<path id="XMLID_76_" class="st1" d="M33.2,46.5c-0.3,0-0.5-0.1-0.7-0.3c-0.3-0.3-0.4-0.8-0.2-1.2l4.8-9.9
		c-4.3-7.1-3.1-16.4,2.7-22.2c3.4-3.4,8-5.3,12.9-5.3s9.4,1.9,12.9,5.3c0.7,0.7,1.3,1.5,1.9,2.3L66.2,16c-0.5-0.7-1.1-1.4-1.8-2.1
		c-3.1-3.1-7.3-4.9-11.8-4.9s-8.6,1.7-11.8,4.9c-5.5,5.5-6.5,14.2-2.3,20.7l0.2,0.4l-4.6,9.5l9.4-4.7l0.3,0.2c6.6,4.1,15,3,20.5-2.4
		c0.8-0.8,1.4-1.6,2-2.5l1.2,0.9c-0.7,1-1.4,1.8-2.2,2.7c-5.9,5.9-14.9,7-22,2.9l-9.8,4.9C33.5,46.5,33.4,46.5,33.2,46.5L33.2,46.5z
		"/>
	<rect id="XMLID_77_" x="40.4" y="17.4" class="st1" width="5.1" height="1.5"/>
	<rect id="XMLID_78_" x="46.8" y="17.4" class="st1" width="25.9" height="1.5"/>
	<rect id="XMLID_79_" x="43.5" y="21" class="st1" width="9.1" height="1.5"/>
	<rect id="XMLID_80_" x="41.4" y="24.5" class="st1" width="6.6" height="1.5"/>
	<rect id="XMLID_81_" x="49.9" y="24.5" class="st1" width="24.3" height="1.5"/>
	<rect id="XMLID_82_" x="42.3" y="28.3" class="st1" width="13.2" height="1.5"/>
	<rect id="XMLID_83_" x="42.3" y="32.4" class="st1" width="5.7" height="1.5"/>
	<rect id="XMLID_84_" x="49.9" y="32.4" class="st1" width="30.2" height="1.5"/>
	<rect id="XMLID_85_" x="57" y="28.3" class="st1" width="7.3" height="1.5"/>
	<rect id="XMLID_86_" x="54.2" y="21" class="st1" width="4.6" height="1.5"/>
	<rect id="XMLID_87_" x="74.2" y="17.4" class="st1" width="6" height="1.5"/>
</g>
</svg>
